<svg height="120" viewBox="0 0 120 120" width="120" xmlns="http://www.w3.org/2000/svg"><path d="m7.17241379 79.0914998 44.33497541 7.8423646c2.54844.4466338 4.7619047.2955665 6.6403941-.453202 1.8784893-.7487685 3.3234811-2.0295566 4.3349753-3.8423645 1.0114943-1.8128079 1.5172414-4.0985222 1.5172414-6.8571429v-48.8669951c0-3.6518883-.9458128-6.3316913-2.8374384-8.0394088-1.8916256-1.7077176-4.7290641-2.8899836-8.5123153-3.5467981l-43.23152709-7.64532015c-1.91789819-.31527094-3.58620689-.22988506-5.00492611.25615763-1.41871921.4860427-2.5090312 1.34646963-3.27093596 2.58128082-.76190476 1.2348111-1.14285714 2.771757-1.14285714 4.6108374v55.6453202c0 2.364532.59113301 4.2364532 1.77339901 5.6157636 1.18226601 1.3793103 2.98193761 2.2791461 5.39901478 2.6995073zm1.10344828-4.7684729c-1.15599343-.2101806-2.01642036-.6568144-2.58128079-1.3399014-.56486043-.6830871-.84729064-1.6288999-.84729064-2.8374385v-54.226601c0-1.2873563.40722496-2.2397372 1.22167488-2.8571428s1.93103448-.7947455 3.34975369-.5320197l42.99507389 7.5665025c2.2594417.3940886 3.9474548 1.1100164 5.0640394 2.1477832s1.6748769 2.5287356 1.6748769 4.4729064v48.6699507c0 2.4696224-.6962234 4.2824303-2.08867 5.4384237s-3.270936 1.5238095-5.635468 1.1034483zm47.36945813-54.8571428h4.8472906v-9.4187192c0-3.80952384-1.2085386-6.56814453-3.6256157-8.2758621-2.4170772-1.70771757-5.7931035-2.18062398-10.1280788-1.41871921l-41.22167492 7.29064039 1.73399015 4.25615762 41.18226597-6.97536944c2.2594417-.39408867 4.0262726-.15106733 5.3004926.72906404 1.2742201.88013136 1.9113301 2.30541872 1.9113301 4.27586207zm-40.9458128 10.4039409 31.7635468 5.5960591c.7619047.1313629 1.3530378-.0065682 1.773399-.4137931.4203612-.407225.6305419-.9261084.6305419-1.5566503 0-1.1297208-.5779967-1.7996716-1.7339902-2.0098522l-31.684729-5.5566502c-.7093596-.1313629-1.2939245-.0065682-1.7536946.3743842s-.6896552.8866995-.6896552 1.5172414c0 .5254515.1510673.9786535.453202 1.3596059.3021346.3809524.7159277.6108374 1.2413793.6896552zm0 15.093596 31.7635468 5.5960591c.7619047.1313629 1.3530378-.0065681 1.773399-.4137931.4203612-.4072249.6305419-.9261083.6305419-1.5566502 0-1.1297209-.5779967-1.7996716-1.7339902-2.0098522l-31.684729-5.5566503c-.7093596-.1313629-1.2939245 0-1.7536946.3940887s-.6896552.8932676-.6896552 1.4975369c0 .5517242.1510673 1.0114943.453202 1.3793104.3021346.3678161.7159277.591133 1.2413793.6699507z" transform="translate(27.836426 16.722755)"/></svg>