<?xml version="1.0" encoding="UTF-8" standalone="no"?>
<!-- Created with Inkscape (http://www.inkscape.org/) -->

<svg
   width="34.357594mm"
   height="34.335663mm"
   viewBox="0 0 34.357594 34.335663"
   version="1.1"
   id="svg1"
   xml:space="preserve"
   xmlns="http://www.w3.org/2000/svg"
   xmlns:svg="http://www.w3.org/2000/svg"><defs
     id="defs1" /><g
     id="layer1"
     transform="translate(-88.901463,-129.94885)"><path
       style="fill:#000000"
       d="m 91.893824,164.01471 c -1.134877,-0.32837 -2.385404,-1.62946 -2.718347,-2.82825 -0.149888,-0.53969 -0.273188,-2.88952 -0.274,-5.22186 -0.0016,-4.62914 0.209751,-5.41668 1.453733,-5.41668 1.259049,0 1.455208,0.76761 1.455208,5.69449 0,3.16155 0.09534,4.61377 0.3175,4.83592 0.222156,0.22216 1.674371,0.3175 4.83592,0.3175 4.926892,0 5.694492,0.19616 5.694492,1.45521 0,1.25777 -0.77393,1.45741 -5.548971,1.43135 -2.405094,-0.0131 -4.752085,-0.13358 -5.215535,-0.26768 z m 18.238986,-0.10626 c -0.76349,-0.54629 -0.76703,-1.56858 -0.007,-2.10074 0.47649,-0.33374 1.44515,-0.41188 5.10646,-0.41188 3.16155,0 4.61376,-0.0953 4.83592,-0.3175 0.22215,-0.22215 0.3175,-1.67437 0.3175,-4.83592 0,-5.05207 0.20407,-5.79953 1.5408,-5.64345 1.23327,0.14399 1.40151,0.91747 1.31255,6.03437 -0.0732,4.21127 -0.13248,4.714 -0.6549,5.55625 -1.10918,1.78822 -1.74949,1.97459 -7.09324,2.0646 -4.04246,0.0681 -4.85251,0.0158 -5.35782,-0.34573 z m -15.260785,-5.57422 c -0.345355,-0.34536 -0.415773,-1.17732 -0.415773,-4.91219 0,-2.59351 0.115912,-4.71299 0.273892,-5.00818 0.255925,-0.4782 0.601209,-0.51178 5.263359,-0.51178 4.305667,0 5.011477,0.0574 5.150067,0.41852 0.31708,0.82629 0.1782,9.7768 -0.1569,10.1119 -0.22307,0.22307 -1.71265,0.3175 -5.008186,0.3175 -3.911481,0 -4.759752,-0.0691 -5.106459,-0.41577 z m 8.521815,-5.07433 -0.074,-3.37344 -3.373434,-0.074 -3.373438,-0.074 v 3.44749 3.44748 h 3.447492 3.44748 z m -4.704255,-0.0661 v -1.32292 h 1.322915 1.32292 v 1.32292 1.32292 h -1.32292 -1.322915 z m 8.731245,3.43958 v -1.32291 h 1.32292 1.32292 v 1.32291 1.32292 h -1.32292 -1.32292 z m 6.87917,0 v -1.32291 h 1.32292 1.32291 v 1.32291 1.32292 H 115.62292 114.3 Z m -3.43958,-3.43958 v -1.32292 h 1.32291 1.32292 v 1.32292 1.32292 h -1.32292 -1.32291 z m -3.43959,-3.43958 v -1.32292 h 1.32292 1.32292 v 1.32292 1.32291 h -1.32292 -1.32292 z m 6.87917,0 v -1.32292 h 1.32292 1.32291 v 1.32292 1.32291 H 115.62292 114.3 Z m -19.569856,-3.95136 c -0.15798,-0.29519 -0.273892,-2.41467 -0.273892,-5.00818 0,-3.73487 0.07042,-4.56683 0.415773,-4.91219 0.346707,-0.3467 1.194978,-0.41577 5.106459,-0.41577 3.295536,0 4.785116,0.0944 5.008186,0.3175 0.3351,0.3351 0.47398,9.28561 0.1569,10.1119 -0.13859,0.36116 -0.8444,0.41851 -5.150067,0.41851 -4.66215,0 -5.007434,-0.0336 -5.263359,-0.51177 z m 8.663696,-4.84604 0.074,-3.37344 h -3.44748 -3.447492 v 3.44749 3.44749 l 3.373438,-0.074 3.373434,-0.074 z m -4.704255,0.0661 V 139.7 h 1.322915 1.32292 v 1.32292 1.32291 h -1.32292 -1.322915 z m 8.378475,5.11528 c -0.33372,-0.33372 -0.20183,-10.01109 0.14111,-10.35403 0.22306,-0.22307 1.71265,-0.3175 5.00818,-0.3175 3.91148,0 4.75975,0.0691 5.10646,0.41577 0.34536,0.34536 0.41577,1.17732 0.41577,4.91219 0,2.59351 -0.11591,4.71299 -0.27389,5.00818 -0.25587,0.47811 -0.60103,0.51177 -5.24757,0.51177 -2.73552,0 -5.05305,-0.0794 -5.15006,-0.17638 z m 8.55486,-5.11528 v -3.43959 h -3.43959 -3.43958 v 3.2632 c 0,1.79476 0.0794,3.34257 0.17639,3.43958 0.097,0.097 1.64483,0.17639 3.43958,0.17639 h 3.2632 z m -4.7625,0 V 139.7 h 1.32291 1.32292 v 1.32292 1.32291 h -1.32292 -1.32291 z m -21.579066,1.99782 c -0.358754,-0.54753 -0.410986,-1.37837 -0.336829,-5.35782 0.08003,-4.29437 0.138665,-4.79147 0.664806,-5.63584 1.109252,-1.78015 1.766367,-1.97453 6.963587,-2.05997 5.115842,-0.0841 5.890952,0.0845 6.034372,1.31292 0.15608,1.33673 -0.59138,1.5408 -5.643452,1.5408 -3.161549,0 -4.613764,0.0953 -4.83592,0.3175 -0.222155,0.22216 -0.3175,1.67438 -0.3175,4.83593 0,3.6613 -0.07813,4.62996 -0.411878,5.10645 -0.553312,0.78997 -1.579328,0.7609 -2.117186,-0.06 z m 31.526526,0.0751 c -0.34686,-0.4952 -0.42246,-1.4118 -0.42246,-5.12156 0,-3.16155 -0.0953,-4.61377 -0.3175,-4.83593 -0.22216,-0.22215 -1.67437,-0.3175 -4.83592,-0.3175 -5.05207,0 -5.79953,-0.20407 -5.64346,-1.5408 0.14343,-1.22838 0.91854,-1.39703 6.03438,-1.31292 5.19781,0.0855 5.85725,0.2806 6.96095,2.05997 0.52242,0.84226 0.58168,1.34499 0.6549,5.55625 0.089,5.11691 -0.0793,5.89039 -1.31255,6.03438 -0.48443,0.0566 -0.82426,-0.10202 -1.11834,-0.52189 z"
       id="path1" /></g></svg>
